<svg id="Layer_1" data-name="Layer 1" xmlns="http://www.w3.org/2000/svg" viewBox="0 0 489.65 190.9"><defs><style>.cls-1{font-size:120.09px;}.cls-1,.cls-3{fill:#fff;font-family:KaushanScript-Regular, Kaushan Script;}.cls-2{letter-spacing:0em;}.cls-3{font-size:56.04px;}.cls-4{letter-spacing:-0.02em;}.cls-5{letter-spacing:-0.01em;}.cls-6{fill:#e4d6c5;}.cls-7{fill:#fadf49;}</style></defs><text class="cls-1" transform="translate(245.27 102.92)"><tspan class="cls-2">fl</tspan><tspan x="70.01" y="0">or </tspan></text><text class="cls-3" transform="translate(253.27 170.33)"><tspan class="cls-4">M</tspan><tspan x="51.39" y="0">ass</tspan><tspan class="cls-5" x="116.51" y="0">a</tspan><tspan x="142.51" y="0">gem</tspan></text><path class="cls-6" d="M46.52,58.88C39.77,56.07,86.05,13.5,100,7.66s7.18,9,1.34,18,3.82,55.93,11.46,67.61a1.32,1.32,0,0,1-1.35,1.35S93.46,78.42,46.52,58.88Z" transform="translate(-5.73 -4)"/><path class="cls-6" d="M106.26,112.78c9.89,12.13,18,49,45.83,57.51s40.79-26.72,45.37-42.23c8.08-27.41-51.66-75-80-38.64C106,104.24,106.26,112.78,106.26,112.78Z" transform="translate(-5.73 -4)"/><path class="cls-6" d="M114.8,93C95,61.12,100.91.82,152.09,17.1c39.53,12.58,55.7,14.82,55.7,19.76,0,6.29-48.56,5.85-62.44,21.57Z" transform="translate(-5.73 -4)"/><path class="cls-6" d="M92.34,178.82c-22,13.93-41.3,6.07-55.26-4.49-16.62-12.58-7.63-54.81,42.68-67.39,14.88-3.72,21.79-7.41,28.53-7.41C101.55,112.11,114.35,164.89,92.34,178.82Z" transform="translate(-5.73 -4)"/><path class="cls-6" d="M16.42,153.66C7.43,124-6.94,89.87,28.1,72.8S92.79,86.28,111.66,98C53.26,101.55,28.1,129.41,16.42,153.66Z" transform="translate(-5.73 -4)"/><path class="cls-7" d="M80.43,75.27c-5.18-2.33,20.67-27.4,22-17.52,1.44,10.62,4,27.41,10.33,35.49l-1.35,1.35A132.63,132.63,0,0,0,80.43,75.27Z" transform="translate(-5.73 -4)"/><path class="cls-7" d="M106.4,112.91c1.89,3.24.12-.08,3.71,6.36a1.4,1.4,0,0,0,2.53-.2c6.73-18.35,12.4-31.53,29.11-42.67-3.59-.45-17.29,2.92-24.12,13.15C107.22,105.17,107.21,107,106.4,112.91Z" transform="translate(-5.73 -4)"/><path class="cls-7" d="M73.92,104.7C78,93,75.72,87.18,73,73.25,83.35,78.64,101.77,84,111.87,98.09,92.79,98,82.9,102,73.92,104.7Z" transform="translate(-5.73 -4)"/><path class="cls-7" d="M115,93.39C106,79.32,104.24,61.8,104.69,53.26c11.68,0,26.51,4.94,32.35,14.38C127.15,78.87,115,93.39,115,93.39Z" transform="translate(-5.73 -4)"/><path class="cls-7" d="M105.59,117.05c-7.64-10.33-23.17-7.3-34.14-7.64,14.87-3.71,30.55-10.78,37.29-9.88C105.14,106.72,106,108.07,105.59,117.05Z" transform="translate(-5.73 -4)"/></svg>