<?xml version="1.0" encoding="utf-8"?>
<!-- Generator: Adobe Illustrator 25.2.3, SVG Export Plug-In . SVG Version: 6.00 Build 0)  -->
<svg version="1.1" id="Layer_1" xmlns="http://www.w3.org/2000/svg" xmlns:xlink="http://www.w3.org/1999/xlink" x="0px" y="0px"
	 viewBox="0 0 55.2 38.4" style="enable-background:new 0 0 55.2 38.4;" xml:space="preserve">
<style type="text/css">
	.st0{fill:#FEFEFE;}
	.st1{fill:#C8102E;}
	.st2{fill:#012169;}
</style>
<g>
	<path class="st0" d="M2.9,38.4h49.5c1.6-0.1,2.9-1.4,2.9-3V3c0-1.7-1.3-3-3-3H0c0,0,3,0,0,0v35.4C0,37,1.3,38.3,2.9,38.4L2.9,38.4z
		"/>
	<polygon class="st1" points="23.7,23 23.7,38.4 31.4,38.4 31.4,23 55.2,23 55.2,15.4 31.4,15.4 31.4,0 23.7,0 23.7,15.4 0,15.4 
		0,23 	"/>
	<path class="st2" d="M34,12.4V0h21.2c0,1.8,0,0,0,1.8L34,12.4L34,12.4z"/>
	<path class="st2" d="M34,26v12.4h21.2c0-1.8,0,0,0-1.8L34,26L34,26z"/>
	<path class="st2" d="M21.2,26v12.4H0c0-1.9,0-0.8,0-1.9L21.2,26L21.2,26z"/>
	<path class="st2" d="M21.2,12.4V0H0c0,1.6,0,0,0,1.6L21.2,12.4L21.2,12.4z"/>
	<polygon class="st2" points="0,12.8 7.7,12.8 0,9 	"/>
	<polygon class="st2" points="55.2,12.8 47.5,12.8 55.2,8.9 	"/>
	<polygon class="st2" points="55.2,25.6 47.5,25.6 55.2,29.5 	"/>
	<polygon class="st2" points="0,25.6 7.7,25.6 0,29.4 	"/>
	<polygon class="st1" points="55.2,3.2 36.2,12.8 40.4,12.8 55.2,5.4 	"/>
	<polygon class="st1" points="19,25.6 14.8,25.6 0,33 0,35.1 19,25.6 	"/>
	<polygon class="st1" points="10.5,12.8 14.8,12.8 0,5.4 0,7.6 	"/>
	<polygon class="st1" points="44.6,25.6 40.4,25.6 55.2,33 55.2,30.9 	"/>
</g>
</svg>
